<?xml version="1.0" standalone="no"?><!DOCTYPE svg PUBLIC "-//W3C//DTD SVG 1.1//EN" "http://www.w3.org/Graphics/SVG/1.1/DTD/svg11.dtd"><svg t="1693656053231" class="icon" viewBox="0 0 1024 1024" version="1.1" xmlns="http://www.w3.org/2000/svg" p-id="19399" xmlns:xlink="http://www.w3.org/1999/xlink" width="128" height="128"><path d="M266.261333 342.186667a300.373333 300.373333 0 0 1 56.768-61.482667l-64.597333-111.893333a429.013333 429.013333 0 0 0-103.296 109.226666l111.146667 64.149334zM469.333333 216.362667V87.445333a423.893333 423.893333 0 0 0-137.557333 37.717334l64.362667 111.488A296.576 296.576 0 0 1 469.333333 216.362667z m265.28 494.762666a300.416 300.416 0 0 1-42.112 38.826667l64.362667 111.509333a429.12 429.12 0 0 0 90.261333-85.376l-112.512-64.96zM554.666667 807.637333v128.917334c45.013333-4.48 88-15.936 127.786666-33.301334l-64.597333-111.893333c-20.117333 7.637333-41.258667 13.141333-63.189333 16.277333zM216.362667 469.333333c2.474667-17.386667 6.464-34.304 11.818666-50.602666l-112.533333-64.96A424.064 424.064 0 0 0 87.445333 469.333333h128.917334z m591.274666 85.333334a296.554667 296.554667 0 0 1-25.685333 85.269333l111.146667 64.149333A423.893333 423.893333 0 0 0 936.533333 554.666667h-128.917333zM277.333333 696.746667l-111.658666 64.490666a429.098667 429.098667 0 0 0 101.482666 100.224l64.362667-111.488a300.437333 300.437333 0 0 1-54.186667-53.205333zM469.333333 807.658667a296.618667 296.618667 0 0 1-63.189333-16.277334l-64.618667 111.893334A423.957333 423.957333 0 0 0 469.333333 936.554667v-128.917334zM746.666667 327.253333l111.68-64.469333a429.12 429.12 0 0 0-92.8-93.952l-64.576 111.893333c16.853333 13.802667 32.213333 29.418667 45.717333 46.528z m-192-110.869333c25.6 3.648 50.133333 10.56 73.194666 20.266667l64.362667-111.466667A423.893333 423.893333 0 0 0 554.666667 87.445333v128.917334zM216.362667 554.666667H87.445333c4.650667 46.890667 16.896 91.52 35.477334 132.693333l111.68-64.469333A296.597333 296.597333 0 0 1 216.362667 554.666667z m591.274666-85.333334h128.917334a423.914667 423.914667 0 0 0-35.477334-132.693333l-111.68 64.469333c8.661333 21.610667 14.848 44.458667 18.24 68.224zM512 1024C229.226667 1024 0 794.773333 0 512S229.226667 0 512 0s512 229.226667 512 512-229.226667 512-512 512z m0-298.666667c117.824 0 213.333333-95.509333 213.333333-213.333333s-95.509333-213.333333-213.333333-213.333333-213.333333 95.509333-213.333333 213.333333 95.509333 213.333333 213.333333 213.333333z" fill="#515151" p-id="19400"></path></svg>